<svg width="15" height="15" viewBox="0 0 15 15" fill="none" xmlns="http://www.w3.org/2000/svg">
<g clip-path="url(#clip0_581_307167)">
<rect width="11" height="24" transform="translate(2 -5)" fill="white" fill-opacity="0.01"/>
<path d="M6.98235 13.6588L3.6851 9.88988C3.29598 9.44644 3.61223 8.75 4.20279 8.75H10.7973C10.9295 8.74989 11.0589 8.78787 11.17 8.85941C11.2811 8.93095 11.3693 9.033 11.4239 9.15335C11.4785 9.2737 11.4973 9.40725 11.478 9.538C11.4587 9.66875 11.4021 9.79115 11.315 9.89056L8.01773 13.6581C7.9532 13.7319 7.87362 13.7911 7.78433 13.8316C7.69504 13.8722 7.5981 13.8932 7.50004 13.8932C7.40197 13.8932 7.30504 13.8722 7.21575 13.8316C7.12646 13.7911 7.04688 13.7319 6.98235 13.6581V13.6588Z" fill="#ADB5BD"/>
<path d="M6.98235 1.34185L3.6851 5.11003C3.29598 5.55484 3.61223 6.25059 4.20279 6.25059H10.7973C10.9295 6.25071 11.0589 6.21272 11.17 6.14119C11.2811 6.06965 11.3693 5.96759 11.4239 5.84724C11.4785 5.72689 11.4973 5.59335 11.478 5.4626C11.4587 5.33185 11.4021 5.20944 11.315 5.11003L8.01773 1.34253C7.9532 1.26869 7.87362 1.2095 7.78433 1.16895C7.69504 1.1284 7.5981 1.10742 7.50004 1.10742C7.40197 1.10742 7.30504 1.1284 7.21575 1.16895C7.12646 1.2095 7.04688 1.26869 6.98235 1.34253V1.34185Z" fill="#ADB5BD"/>
</g>
<defs>
<clipPath id="clip0_581_307167">
<rect width="15" height="15" fill="white"/>
</clipPath>
</defs>
</svg>
