<svg width="20" height="20" viewBox="0 0 20 20" fill="none" xmlns="http://www.w3.org/2000/svg">
<path d="M9.99854 17.9994C10.529 17.9994 11.0377 17.7887 11.4127 17.4136C11.7878 17.0386 11.9985 16.5298 11.9985 15.9994H7.99854C7.99854 16.5298 8.20925 17.0386 8.58432 17.4136C8.95939 17.7887 9.4681 17.9994 9.99854 17.9994ZM10.9935 3.09841C11.0075 2.95936 10.9922 2.81894 10.9485 2.68618C10.9049 2.55343 10.8339 2.4313 10.7401 2.32767C10.6464 2.22404 10.5319 2.1412 10.4042 2.08451C10.2765 2.02782 10.1383 1.99854 9.99854 1.99854C9.85879 1.99854 9.7206 2.02782 9.59287 2.08451C9.46514 2.1412 9.35071 2.22404 9.25696 2.32767C9.16321 2.4313 9.09222 2.55343 9.04857 2.68618C9.00492 2.81894 8.98958 2.95936 9.00354 3.09841C7.87325 3.32831 6.85716 3.94177 6.1273 4.83491C5.39744 5.72805 4.99868 6.84598 4.99854 7.99941C4.99854 9.09741 4.49854 13.9994 2.99854 14.9994H16.9985C15.4985 13.9994 14.9985 9.09741 14.9985 7.99941C14.9985 5.57941 13.2785 3.55941 10.9935 3.09841V3.09841Z" fill="white"/>
</svg>
