<svg width="24" height="24" viewBox="0 0 24 24" fill="none" xmlns="http://www.w3.org/2000/svg">
<path d="M7.539 22C16.596 22 21.5505 14.3035 21.5505 7.64077C21.5505 7.42539 21.5505 7.20694 21.5415 6.99157C22.5061 6.27543 23.3386 5.38881 24 4.37325C23.099 4.78069 22.1441 5.04922 21.1665 5.17013C22.1963 4.53884 22.9676 3.54555 23.337 2.37489C22.3695 2.96274 21.3105 3.37541 20.2065 3.59483C19.4643 2.78414 18.4821 2.24708 17.4121 2.06684C16.3422 1.88661 15.2441 2.07325 14.288 2.59786C13.3319 3.12247 12.5712 3.95578 12.1237 4.96869C11.6761 5.98161 11.5668 7.11761 11.8125 8.20074C9.85461 8.10005 7.93922 7.57841 6.19056 6.66965C4.4419 5.76089 2.89903 4.48531 1.662 2.92563C1.03401 4.03801 0.842361 5.35381 1.12597 6.60585C1.40958 7.85788 2.14718 8.95228 3.189 9.66681C2.40831 9.63961 1.64478 9.42461 0.96 9.03915V9.10838C0.961346 10.2737 1.35496 11.4028 2.07431 12.3048C2.79366 13.2068 3.79462 13.8264 4.908 14.0589C4.48539 14.1783 4.04884 14.2378 3.6105 14.2358C3.30148 14.2368 2.99307 14.2074 2.6895 14.1481C3.00418 15.1512 3.61691 16.0283 4.44187 16.6564C5.26683 17.2845 6.2627 17.6323 7.29 17.651C5.54483 19.0568 3.3891 19.8192 1.17 19.8155C0.778981 19.8172 0.388235 19.7941 0 19.7463C2.25227 21.2189 4.86795 22.0008 7.539 22V22Z" fill="#F8F9FA"/>
</svg>
