<svg width="18" height="16" viewBox="0 0 18 16" fill="none" xmlns="http://www.w3.org/2000/svg">
<path d="M4.99976 5.75193V4.85193H5.99976V5.75193H4.99976Z" fill="#20C997"/>
<path d="M11.9998 5.75193V4.85193H12.9998V5.75193H11.9998Z" fill="#20C997"/>
<path d="M4.99976 7.55193V6.65193H5.99976V7.55193H4.99976Z" fill="#20C997"/>
<path d="M11.9998 7.55193V6.65193H12.9998V7.55193H11.9998Z" fill="#20C997"/>
<path d="M4.99976 9.35193V8.45193H5.99976V9.35193H4.99976Z" fill="#20C997"/>
<path d="M11.9998 9.35193V8.45193H12.9998V9.35193H11.9998Z" fill="#20C997"/>
<path d="M4.99976 11.1519V10.2519H5.99976V11.1519H4.99976Z" fill="#20C997"/>
<path d="M11.9998 11.1519V10.2519H12.9998V11.1519H11.9998Z" fill="#20C997"/>
<path fill-rule="evenodd" clip-rule="evenodd" d="M1.4391 3.44129C1.7204 3.15999 2.10193 3.00195 2.49976 3.00195H15.4998C15.8976 3.00195 16.2791 3.15999 16.5604 3.44129C16.8417 3.7226 16.9998 4.10413 16.9998 4.50195V6.00195C16.9998 6.13456 16.9471 6.26174 16.8533 6.35551C16.7595 6.44927 16.6324 6.50195 16.4998 6.50195C16.1019 6.50195 15.7204 6.65999 15.4391 6.94129C15.1578 7.2226 14.9998 7.60413 14.9998 8.00195C14.9998 8.39978 15.1578 8.78131 15.4391 9.06261C15.7204 9.34392 16.1019 9.50195 16.4998 9.50195C16.6324 9.50195 16.7595 9.55463 16.8533 9.6484C16.9471 9.74217 16.9998 9.86934 16.9998 10.002V11.502C16.9998 11.8998 16.8417 12.2813 16.5604 12.5626C16.2791 12.8439 15.8976 13.002 15.4998 13.002H2.49976C2.10193 13.002 1.7204 12.8439 1.4391 12.5626C1.15779 12.2813 0.999756 11.8998 0.999756 11.502V10.002C0.999756 9.86934 1.05243 9.74217 1.1462 9.6484C1.23997 9.55463 1.36715 9.50195 1.49976 9.50195C1.89758 9.50195 2.27911 9.34392 2.56042 9.06261C2.84172 8.78131 2.99976 8.39978 2.99976 8.00195C2.99976 7.60413 2.84172 7.2226 2.56042 6.94129C2.27911 6.65999 1.89758 6.50195 1.49976 6.50195C1.36715 6.50195 1.23997 6.44927 1.1462 6.35551C1.05243 6.26174 0.999756 6.13456 0.999756 6.00195V4.50195C0.999756 4.10413 1.15779 3.7226 1.4391 3.44129ZM2.1462 4.1484C2.05243 4.24217 1.99976 4.36934 1.99976 4.50195V5.55195C2.5649 5.66671 3.07299 5.97332 3.43794 6.41982C3.8029 6.86633 4.00226 7.42528 4.00226 8.00195C4.00226 8.57863 3.8029 9.13758 3.43794 9.58408C3.07299 10.0306 2.5649 10.3372 1.99976 10.452V11.502C1.99976 11.6346 2.05243 11.7617 2.1462 11.8555C2.23997 11.9493 2.36715 12.002 2.49976 12.002H15.4998C15.6324 12.002 15.7595 11.9493 15.8533 11.8555C15.9471 11.7617 15.9998 11.6346 15.9998 11.502V10.452C15.4346 10.3372 14.9265 10.0306 14.5616 9.58408C14.1966 9.13758 13.9972 8.57863 13.9972 8.00195C13.9972 7.42528 14.1966 6.86633 14.5616 6.41982C14.9265 5.97332 15.4346 5.66671 15.9998 5.55195V4.50195C15.9998 4.36934 15.9471 4.24217 15.8533 4.1484C15.7595 4.05463 15.6324 4.00195 15.4998 4.00195H2.49976C2.36715 4.00195 2.23997 4.05463 2.1462 4.1484Z" fill="#20C997"/>
</svg>
